<svg id="Group_88" data-name="Group 88" xmlns="http://www.w3.org/2000/svg" xmlns:xlink="http://www.w3.org/1999/xlink" width="67.868" height="39.758" viewBox="0 0 67.868 39.758">
  <defs>
    <clipPath id="clip-path">
      <rect id="Rectangle_38" data-name="Rectangle 38" width="67.868" height="39.758" fill="#e4361b"/>
    </clipPath>
  </defs>
  <g id="Group_87" data-name="Group 87" clip-path="url(#clip-path)">
    <path id="Path_126" data-name="Path 126" d="M42.216,19.988c0-.11.009-.219.015-.329a5.751,5.751,0,1,1,0,.765c-.011-.145-.016-.289-.016-.437M34.721,33.2,23.048,12.983,11.374,33.2ZM29.853,11.953a19.842,19.842,0,1,1,18.079,27.8c-.717,0-1.236,0-2.042-.028l-3.622,0-.016-8.457a12.671,12.671,0,1,0-6.906-11.287c0,.387.016.769.051,1.146v18.6L0,39.755,22.952,0Z" fill="#e4361b"/>
  </g>
</svg>
